<svg width="370" height="428" viewBox="0 0 370 428" fill="none" xmlns="http://www.w3.org/2000/svg">
<path fill-rule="evenodd" clip-rule="evenodd" d="M31.315 0.557231C82.2291 -1.48927 137.724 0.708263 176.783 31.4542C214.981 61.5219 218.204 113.301 231.768 158.347C244.714 201.341 377.103 196.07 368.869 240.076C359.75 288.807 228.687 390.856 183.504 416.287C138.882 441.402 82.8565 419.313 31.315 412.712C-12.4588 407.106 -54.6293 400.645 -93.4402 380.819C-137.48 358.322 -198.074 338.361 -205.421 291.78C-212.961 243.981 -144.643 216.575 -126.478 171.367C-109.769 129.779 -136.396 76.369 -105.381 42.7959C-73.1547 7.91126 -17.8107 2.53185 31.315 0.557231Z" fill="url(#paint0_linear_30_1731)"/>
<defs>
<linearGradient id="paint0_linear_30_1731" x1="-19.1314" y1="3.57617" x2="-19.1314" y2="431.576" gradientUnits="userSpaceOnUse">
<stop stop-color="#F11792"/>
<stop offset="1" stop-color="#6828CF"/>
</linearGradient>
</defs>
</svg>
