<svg width="126" height="395" viewBox="0 0 126 395" fill="none" xmlns="http://www.w3.org/2000/svg">
<path fill-rule="evenodd" clip-rule="evenodd" d="M171.31 25.9114C204.413 13.2581 238.518 -9.15304 271.496 4.00481C306.583 18.0044 338.844 53.2894 350.269 97.3141C361.515 140.65 334.704 183.642 329.837 228.816C324.914 274.502 347.164 330.96 321.544 363.924C295.584 397.327 249.912 373.259 213.067 379.062C183.339 383.744 155.8 397.014 125.894 394.74C89.2155 391.952 46.0121 397.838 20.6108 364.431C-4.76122 331.063 2.26076 277.055 1.30965 230.892C0.45726 189.521 -5.05 142.981 15.3799 110.546C35.3898 78.7775 74.2745 84.141 103.857 68.0847C127.387 55.313 146.79 35.2842 171.31 25.9114Z" fill="url(#paint0_linear_30_1730)"/>
<defs>
<linearGradient id="paint0_linear_30_1730" x1="176.5" y1="0" x2="176.5" y2="395" gradientUnits="userSpaceOnUse">
<stop stop-color="#5C2BDF"/>
<stop offset="1" stop-color="#F11792"/>
</linearGradient>
</defs>
</svg>
