<svg width="54" height="54" viewBox="0 0 54 54" fill="none" xmlns="http://www.w3.org/2000/svg">
    <path d="M18.0022 27C18.0022 22.0296 22.0305 17.9993 27.0011 17.9993C31.9717 17.9993 36.0022 22.0296 36.0022 27C36.0022 31.9704 31.9717 36.0007 27.0011 36.0007C22.0305 36.0007 18.0022 31.9704 18.0022 27ZM13.1364 27C13.1364 34.6572 19.3436 40.8642 27.0011 40.8642C34.6586 40.8642 40.8658 34.6572 40.8658 27C40.8658 19.3428 34.6586 13.1358 27.0011 13.1358C19.3436 13.1358 13.1364 19.3428 13.1364 27ZM38.1746 12.5861C38.1743 13.2269 38.3641 13.8534 38.7199 14.3864C39.0757 14.9193 39.5816 15.3348 40.1735 15.5803C40.7655 15.8257 41.417 15.8902 42.0455 15.7654C42.6741 15.6406 43.2516 15.3323 43.7049 14.8793C44.1582 14.4264 44.467 13.8492 44.5923 13.2208C44.7176 12.5923 44.6537 11.9408 44.4087 11.3487C44.1637 10.7566 43.7486 10.2504 43.2159 9.89416C42.6832 9.53793 42.0568 9.34766 41.416 9.3474H41.4147C40.5557 9.3478 39.732 9.68911 39.1245 10.2964C38.517 10.9036 38.1753 11.7272 38.1746 12.5861ZM16.0926 48.9774C13.4601 48.8575 12.0293 48.419 11.0784 48.0486C9.81781 47.5578 8.91835 46.9733 7.97266 46.029C7.02698 45.0846 6.44159 44.186 5.95298 42.9255C5.58231 41.9751 5.14381 40.5438 5.02415 37.9115C4.89324 35.0654 4.86711 34.2105 4.86711 27.0002C4.86711 19.7899 4.8954 18.9374 5.02415 16.089C5.14403 13.4566 5.58577 12.0282 5.95298 11.075C6.44375 9.81439 7.02827 8.91497 7.97266 7.96932C8.91705 7.02367 9.81565 6.43831 11.0784 5.94972C12.0289 5.57906 13.4601 5.14058 16.0926 5.02092C18.9388 4.89002 19.7937 4.86389 27.0011 4.86389C34.2084 4.86389 35.0643 4.89218 37.9128 5.02092C40.5453 5.1408 41.9737 5.58252 42.927 5.94972C44.1876 6.43831 45.0871 7.02497 46.0327 7.96932C46.9784 8.91367 47.5616 9.81439 48.0524 11.075C48.4231 12.0254 48.8616 13.4566 48.9813 16.089C49.1122 18.9374 49.1383 19.7899 49.1383 27.0002C49.1383 34.2105 49.1122 35.0631 48.9813 37.9115C48.8614 40.5438 48.4207 41.9746 48.0524 42.9255C47.5616 44.186 46.9771 45.0855 46.0327 46.029C45.0884 46.9724 44.1876 47.5578 42.927 48.0486C41.9765 48.4192 40.5453 48.8577 37.9128 48.9774C35.0666 49.1082 34.2117 49.1344 27.0011 49.1344C19.7905 49.1344 18.9379 49.1082 16.0926 48.9774ZM15.8691 0.163512C12.9946 0.294408 11.0305 0.750168 9.31516 1.41761C7.5387 2.10686 6.03485 3.03156 4.53208 4.5319C3.02931 6.03223 2.10695 7.5384 1.41766 9.31478C0.750198 11.0311 0.29442 12.9941 0.163519 15.8684C0.0304572 18.7473 0 19.6677 0 27C0 34.3323 0.0304572 35.2527 0.163519 38.1316C0.29442 41.0061 0.750198 42.9689 1.41766 44.6852C2.10695 46.4605 3.02952 47.9684 4.53208 49.4681C6.03463 50.9678 7.5387 51.8912 9.31516 52.5824C11.0337 53.2498 12.9946 53.7056 15.8691 53.8365C18.7496 53.9674 19.6685 54 27.0011 54C34.3337 54 35.2541 53.9695 38.1331 53.8365C41.0077 53.7056 42.9706 53.2498 44.687 52.5824C46.4624 51.8912 47.9673 50.9684 49.4701 49.4681C50.9729 47.9678 51.8933 46.4605 52.5845 44.6852C53.252 42.9689 53.7099 41.0059 53.8386 38.1316C53.9695 35.2506 54 34.3323 54 27C54 19.6677 53.9695 18.7473 53.8386 15.8684C53.7077 12.9939 53.252 11.03 52.5845 9.31478C51.8933 7.53948 50.9705 6.03461 49.4701 4.5319C47.9697 3.02918 46.4624 2.10686 44.6892 1.41761C42.9706 0.750168 41.0075 0.292248 38.1352 0.163512C35.2563 0.032616 34.3359 0 27.0032 0C19.6706 0 18.7496 0.030456 15.8691 0.163512Z" fill="url(#paint0_linear_22_867)"/>
    <defs>
        <linearGradient id="paint0_linear_22_867" x1="52.9621" y1="54" x2="-1.03788" y2="-1.45353e-06" gradientUnits="userSpaceOnUse">
            <stop stop-color="#FBE18A"/>
            <stop offset="0.21" stop-color="#FCBB45"/>
            <stop offset="0.38" stop-color="#F75274"/>
            <stop offset="0.52" stop-color="#D53692"/>
            <stop offset="0.74" stop-color="#8F39CE"/>
            <stop offset="1" stop-color="#5B4FE9"/>
        </linearGradient>
    </defs>
</svg>
