<svg width="54" height="54" viewBox="0 0 54 54" fill="none" xmlns="http://www.w3.org/2000/svg">
    <path fill-rule="evenodd" clip-rule="evenodd" d="M54 27C54 41.9117 41.9117 54 27 54C12.0883 54 0 41.9117 0 27C0 12.0883 12.0883 0 27 0C41.9117 0 54 12.0883 54 27ZM29.5873 18.7151C24.9489 20.7187 11.5744 26.4086 11.5744 26.4086C8.40482 27.6909 10.2601 28.893 10.2601 28.893C10.2601 28.893 12.9659 29.8547 15.2853 30.5759C17.6045 31.2972 18.8415 30.4958 18.8415 30.4958C18.8415 30.4958 24.2531 26.8094 29.742 22.8824C33.6074 20.1577 32.6797 22.4016 31.752 23.3634C29.742 25.447 26.4177 28.7327 23.6345 31.3774C22.3977 32.4994 23.0161 33.461 23.5573 33.9418C25.1312 35.3224 28.8381 37.8332 30.5211 38.9731C30.9874 39.2889 31.2984 39.4995 31.3655 39.5517C31.752 39.8723 33.9167 41.3148 35.2309 40.9942C36.5452 40.6737 36.6998 38.8304 36.6998 38.8304C36.6998 38.8304 37.7048 32.2589 38.6325 26.2484C38.8044 25.0682 38.9762 23.9129 39.1364 22.8356C39.5528 20.0353 39.8909 17.7623 39.9468 16.952C40.1787 14.2273 37.3956 15.3492 37.3956 15.3492C37.3956 15.3492 31.3655 17.9138 29.5873 18.7151Z" fill="#34AADF"/>
</svg>
