<svg width="54" height="54" viewBox="0 0 54 54" fill="none" xmlns="http://www.w3.org/2000/svg">
    <path d="M0 54L3.87751 39.6069C0.750395 34.0001 -0.24312 27.4574 1.07927 21.1794C2.40167 14.9015 5.95127 9.30934 11.0767 5.42921C16.2022 1.54908 22.5597 -0.358774 28.9826 0.0557407C35.4055 0.470255 41.463 3.17933 46.0436 7.68586C50.6241 12.1924 53.4205 18.1941 53.9195 24.5896C54.4185 30.9851 52.5866 37.3454 48.7601 42.5035C44.9336 47.6616 39.369 51.2714 33.0876 52.6704C26.8062 54.0695 20.2292 53.1641 14.5635 50.1203L0 54ZM15.2658 44.7343L16.1665 45.2668C20.2702 47.691 25.0633 48.6942 29.7989 48.12C34.5344 47.5458 38.9464 45.4265 42.3472 42.0923C45.7481 38.7582 47.9467 34.3964 48.6006 29.6868C49.2545 24.9772 48.3269 20.1842 45.9622 16.0549C43.5976 11.9256 39.9289 8.69189 35.5277 6.85764C31.1266 5.0234 26.2402 4.69169 21.6301 5.91421C17.0201 7.13672 12.9452 9.84479 10.0407 13.6164C7.13609 17.388 5.56492 22.0113 5.57201 26.7658C5.56815 30.708 6.66208 34.574 8.73202 37.9333L9.29686 38.8614L7.12912 46.8948L15.2658 44.7343Z" fill="#00D95F"/>
    <path fill-rule="evenodd" clip-rule="evenodd" d="M37.1259 30.4615C36.5979 30.0371 35.9797 29.7384 35.3183 29.5881C34.657 29.4378 33.9699 29.4399 33.3095 29.5943C32.3172 30.0051 31.6761 31.557 31.0349 32.3329C30.8997 32.519 30.701 32.6494 30.4762 32.6998C30.2513 32.7503 30.0157 32.7172 29.8136 32.6068C26.1809 31.1887 23.1359 28.5882 21.1732 25.2277C21.0058 25.018 20.9266 24.7517 20.9522 24.485C20.9778 24.2182 21.1063 23.9718 21.3106 23.7975C22.0257 23.092 22.5507 22.2181 22.8372 21.2567C22.9008 20.1962 22.657 19.1399 22.1349 18.2138C21.7313 16.9153 20.9633 15.7591 19.9214 14.8817C19.3841 14.6409 18.7882 14.5601 18.2059 14.6492C17.6235 14.7383 17.0794 14.9934 16.6393 15.3838C15.8752 16.0409 15.2687 16.8603 14.8645 17.7819C14.4602 18.7035 14.2686 19.7038 14.3036 20.709C14.306 21.2734 14.3777 21.8355 14.5173 22.3826C14.8718 23.697 15.4169 24.9527 16.1355 26.1102C16.6539 26.9967 17.2196 27.8551 17.83 28.6814C19.8139 31.3957 22.3076 33.7002 25.1728 35.4672C26.6106 36.3651 28.1473 37.0951 29.7526 37.6429C31.4201 38.3962 33.2612 38.6854 35.0803 38.4797C36.1168 38.3233 37.0989 37.9154 37.94 37.292C38.7812 36.6685 39.4558 35.8485 39.9043 34.9042C40.1678 34.3338 40.2478 33.696 40.1333 33.0785C39.8585 31.8156 38.164 31.0701 37.1259 30.4615Z" fill="#00D95F"/>
</svg>