<svg width="54" height="54" viewBox="0 0 54 54" fill="none" xmlns="http://www.w3.org/2000/svg">
    <path fill-rule="evenodd" clip-rule="evenodd" d="M48.0983 1.60773C50.4263 2.50364 52.2561 5.11773 52.8747 8.43136C54 14.445 54 27 54 27C54 27 54 39.555 52.8747 45.5686C52.2475 48.8946 50.4178 51.5086 48.0983 52.3923C43.889 54 27 54 27 54C27 54 10.1196 54 5.90169 52.3923C3.57366 51.4964 1.74388 48.8823 1.12536 45.5686C0 39.555 0 27 0 27C0 27 0 14.445 1.12536 8.43136C1.75247 5.10545 3.58225 2.49136 5.90169 1.60773C10.1196 0 27 0 27 0C27 0 43.889 0 48.0983 1.60773ZM35.6335 27L21.6052 38.5732V15.4268L35.6335 27Z" fill="#FF3000"/>
</svg>
